<svg width="120" height="120" viewBox="0 0 120 120" xmlns="http://www.w3.org/2000/svg">
  <defs>
    <linearGradient id="bgGrad3" x1="0%" y1="0%" x2="100%" y2="100%">
      <stop offset="0%" style="stop-color:#f97316;stop-opacity:1" />
      <stop offset="100%" style="stop-color:#ea580c;stop-opacity:1" />
    </linearGradient>
    <linearGradient id="faceGrad3" x1="0%" y1="0%" x2="100%" y2="100%">
      <stop offset="0%" style="stop-color:#fed7aa;stop-opacity:1" />
      <stop offset="100%" style="stop-color:#fdba74;stop-opacity:1" />
    </linearGradient>
  </defs>
  
  <!-- Background circle -->
  <circle cx="60" cy="60" r="60" fill="url(#bgGrad3)"/>
  
  <!-- Face -->
  <circle cx="60" cy="45" r="18" fill="url(#faceGrad3)"/>
  
  <!-- Body/Shoulders -->
  <path d="M30 85 Q30 70 45 70 Q60 65 75 70 Q90 70 90 85 Q90 100 60 100 Q30 100 30 85 Z" fill="url(#faceGrad3)"/>
  
  <!-- Eyes -->
  <circle cx="54" cy="42" r="2" fill="#1f2937"/>
  <circle cx="66" cy="42" r="2" fill="#1f2937"/>
  
  <!-- Smile -->
  <path d="M54 50 Q60 54 66 50" stroke="#1f2937" stroke-width="1.5" fill="none" stroke-linecap="round"/>
  
  <!-- Hair -->
  <ellipse cx="60" cy="32" rx="20" ry="8" fill="#7c2d12"/>
  
  <!-- Glasses -->
  <circle cx="54" cy="42" r="6" fill="none" stroke="#1f2937" stroke-width="1.5"/>
  <circle cx="66" cy="42" r="6" fill="none" stroke="#1f2937" stroke-width="1.5"/>
  <line x1="60" y1="42" x2="60" y2="42" stroke="#1f2937" stroke-width="1.5"/>
  
  <!-- Initial -->
  <text x="60" y="105" font-family="Arial, sans-serif" font-size="14" font-weight="bold" fill="white" text-anchor="middle">E</text>
</svg>