<svg width="120" height="120" viewBox="0 0 120 120" xmlns="http://www.w3.org/2000/svg">
  <defs>
    <linearGradient id="bgGrad2" x1="0%" y1="0%" x2="100%" y2="100%">
      <stop offset="0%" style="stop-color:#10b981;stop-opacity:1" />
      <stop offset="100%" style="stop-color:#059669;stop-opacity:1" />
    </linearGradient>
    <linearGradient id="faceGrad2" x1="0%" y1="0%" x2="100%" y2="100%">
      <stop offset="0%" style="stop-color:#fde68a;stop-opacity:1" />
      <stop offset="100%" style="stop-color:#fbbf24;stop-opacity:1" />
    </linearGradient>
  </defs>
  
  <!-- Background circle -->
  <circle cx="60" cy="60" r="60" fill="url(#bgGrad2)"/>
  
  <!-- Face -->
  <circle cx="60" cy="45" r="18" fill="url(#faceGrad2)"/>
  
  <!-- Body/Shoulders -->
  <path d="M30 85 Q30 70 45 70 Q60 65 75 70 Q90 70 90 85 Q90 100 60 100 Q30 100 30 85 Z" fill="url(#faceGrad2)"/>
  
  <!-- Eyes -->
  <circle cx="54" cy="42" r="2" fill="#1f2937"/>
  <circle cx="66" cy="42" r="2" fill="#1f2937"/>
  
  <!-- Smile -->
  <path d="M54 50 Q60 54 66 50" stroke="#1f2937" stroke-width="1.5" fill="none" stroke-linecap="round"/>
  
  <!-- Hair -->
  <path d="M45 30 Q60 25 75 30 Q75 35 70 38 Q60 35 50 38 Q45 35 45 30 Z" fill="#8b5cf6"/>
  
  <!-- Initial -->
  <text x="60" y="105" font-family="Arial, sans-serif" font-size="14" font-weight="bold" fill="white" text-anchor="middle">M</text>
</svg>