<svg width="120" height="120" viewBox="0 0 120 120" xmlns="http://www.w3.org/2000/svg">
  <defs>
    <linearGradient id="bgGrad6" x1="0%" y1="0%" x2="100%" y2="100%">
      <stop offset="0%" style="stop-color:#0ea5e9;stop-opacity:1" />
      <stop offset="100%" style="stop-color:#0284c7;stop-opacity:1" />
    </linearGradient>
    <linearGradient id="faceGrad6" x1="0%" y1="0%" x2="100%" y2="100%">
      <stop offset="0%" style="stop-color:#fef3c7;stop-opacity:1" />
      <stop offset="100%" style="stop-color:#fde68a;stop-opacity:1" />
    </linearGradient>
  </defs>
  
  <!-- Background circle -->
  <circle cx="60" cy="60" r="60" fill="url(#bgGrad6)"/>
  
  <!-- Face -->
  <circle cx="60" cy="45" r="18" fill="url(#faceGrad6)"/>
  
  <!-- Body/Shoulders -->
  <path d="M30 85 Q30 70 45 70 Q60 65 75 70 Q90 70 90 85 Q90 100 60 100 Q30 100 30 85 Z" fill="url(#faceGrad6)"/>
  
  <!-- Eyes -->
  <circle cx="54" cy="42" r="2" fill="#1f2937"/>
  <circle cx="66" cy="42" r="2" fill="#1f2937"/>
  
  <!-- Smile -->
  <path d="M54 50 Q60 54 66 50" stroke="#1f2937" stroke-width="1.5" fill="none" stroke-linecap="round"/>
  
  <!-- Hair (spiky) -->
  <path d="M45 35 L48 25 L52 35 L55 22 L58 35 L62 20 L65 35 L68 25 L72 35 L75 30 Q70 38 60 35 Q50 38 45 35 Z" fill="#0f172a"/>
  
  <!-- Hat/Cap -->
  <ellipse cx="60" cy="28" rx="22" ry="6" fill="#1e40af"/>
  <rect x="50" y="25" width="20" height="8" fill="#1e40af" rx="2"/>
  
  <!-- Initial -->
  <text x="60" y="105" font-family="Arial, sans-serif" font-size="14" font-weight="bold" fill="white" text-anchor="middle">D</text>
</svg>